<svg width="657.9px" height="121.3px" xmlns="http://www.w3.org/2000/svg" viewBox="-78.96251220703124 14.34007720947266 657.9250244140625 121.31984558105468" style="background: rgba(0, 0, 0, 0)" preserveAspectRatio="xMidYMid"><defs><linearGradient id="editing-gradient-gradient" x1="0" x2="1" y1="0.5" y2="0.5" gradientUnits="objectBoundingBox"><stop offset="0" stop-color="#51b3e6"></stop><stop offset="1" stop-color="#e64dde"></stop></linearGradient></defs><g><g transform="matrix(1.4,0,0,1.7,-51.1,230)"><path d="M -2.1 -79.5 L -16.1 -79.5 L -8 -121.8 L 6.1 -121.8 L -2.1 -79.5 Z M 53.6 -78.3 L 53.6 -78.3 L 53.6 -78.3 Q 45.9 -78.3 45.9 -84.3 L 45.9 -84.3 L 45.9 -84.3 Q 45.9 -86.9 47 -92 L 47 -92 L 47 -92 Q 48.1 -97.1 48.5 -99.1 L 48.5 -99.1 L 48.5 -99.1 Q 49.4 -103.8 49.4 -105.3 L 49.4 -105.3 L 49.4 -105.3 Q 49.4 -108.5 47 -108.5 L 47 -108.5 L 47 -108.5 Q 45.4 -108.5 43.8 -106.3 L 43.8 -106.3 L 43.8 -106.3 Q 42.3 -104.1 41.6 -99.7 L 41.6 -99.7 L 37.6 -79.5 L 25.1 -78.3 L 28.6 -95.7 L 28.6 -95.7 Q 29.2 -98.6 29.7 -101.8 L 29.7 -101.8 L 29.7 -101.8 Q 30.2 -105.1 30.2 -105.6 L 30.2 -105.6 L 30.2 -105.6 Q 30.2 -108.5 28 -108.5 L 28 -108.5 L 28 -108.5 Q 26.5 -108.5 24.9 -106.4 L 24.9 -106.4 L 24.9 -106.4 Q 23.3 -104.2 22.4 -99.7 L 22.4 -99.7 L 18.5 -79.5 L 5.9 -78.3 L 12.7 -112.2 L 23.1 -113.5 L 22 -107 L 22 -107 Q 23.7 -110.5 26.7 -112 L 26.7 -112 L 26.7 -112 Q 29.8 -113.5 34.6 -113.5 L 34.6 -113.5 L 34.6 -113.5 Q 37.4 -113.5 39.2 -112.1 L 39.2 -112.1 L 39.2 -112.1 Q 40.9 -110.8 41.5 -108.6 L 41.5 -108.6 L 41.5 -108.6 Q 42.6 -110.8 45.4 -112.2 L 45.4 -112.2 L 45.4 -112.2 Q 48.2 -113.5 51.6 -113.5 L 51.6 -113.5 L 51.6 -113.5 Q 55 -113.5 56.7 -112.7 L 56.7 -112.7 L 56.7 -112.7 Q 58.4 -112 59.4 -110.8 L 59.4 -110.8 L 59.4 -110.8 Q 61.2 -108.5 61.2 -104.4 L 61.2 -104.4 L 61.2 -104.4 Q 61.2 -100.4 59.4 -92 L 59.4 -92 L 59.4 -92 Q 58.5 -87.9 58.5 -86.4 L 58.5 -86.4 L 58.5 -86.4 Q 58.5 -84.9 59.4 -84 L 59.4 -84 L 59.4 -84 Q 60.3 -83.1 61.6 -83 L 61.6 -83 L 61.6 -83 Q 60.9 -80.8 58.7 -79.5 L 58.7 -79.5 L 58.7 -79.5 Q 56.5 -78.3 53.6 -78.3 Z M 69.3 -81.5 L 69.3 -81.5 L 69.3 -81.5 Q 67.8 -83.1 67.1 -85.8 L 67.1 -85.8 L 67.1 -85.8 Q 66.4 -88.4 66.4 -92.7 L 66.4 -92.7 L 66.4 -92.7 Q 66.4 -97 67.9 -100.9 L 67.9 -100.9 L 67.9 -100.9 Q 69.4 -104.8 72 -107.6 L 72 -107.6 L 72 -107.6 Q 77.6 -113.5 86.6 -113.5 L 86.6 -113.5 L 86.6 -113.5 Q 89.9 -113.5 92.3 -112.4 L 92.3 -112.4 L 103.2 -113.5 L 98.5 -88.5 L 98.5 -88.5 Q 98.3 -87.7 98.3 -86.3 L 98.3 -86.3 L 98.3 -86.3 Q 98.3 -84.9 99.2 -84 L 99.2 -84 L 99.2 -84 Q 100 -83.1 101.3 -83 L 101.3 -83 L 101.3 -83 Q 100.7 -80.8 98.3 -79.5 L 98.3 -79.5 L 98.3 -79.5 Q 96 -78.3 93.4 -78.3 L 93.4 -78.3 L 93.4 -78.3 Q 90.7 -78.3 89 -79.3 L 89 -79.3 L 89 -79.3 Q 87.2 -80.2 86.7 -81.9 L 86.7 -81.9 L 86.7 -81.9 Q 85.7 -80.3 83.5 -79.3 L 83.5 -79.3 L 83.5 -79.3 Q 81.3 -78.3 78.4 -78.3 L 78.4 -78.3 L 78.4 -78.3 Q 75.5 -78.3 73.1 -79 L 73.1 -79 L 73.1 -79 Q 70.8 -79.8 69.3 -81.5 Z M 82.8 -107.4 L 82.8 -107.4 L 82.8 -107.4 Q 82 -106.3 81.4 -104.3 L 81.4 -104.3 L 81.4 -104.3 Q 80.8 -102.4 79.7 -97.2 L 79.7 -97.2 L 79.7 -97.2 Q 78.6 -92 78.6 -88.2 L 78.6 -88.2 L 78.6 -88.2 Q 78.6 -84.5 79.2 -83.4 L 79.2 -83.4 L 79.2 -83.4 Q 79.8 -82.4 80.8 -82.4 L 80.8 -82.4 L 80.8 -82.4 Q 82.9 -82.4 84.4 -84.3 L 84.4 -84.3 L 84.4 -84.3 Q 85.9 -86.3 86.4 -89.7 L 86.4 -89.7 L 89.8 -108.5 L 89.8 -108.5 Q 88.5 -109.6 86.9 -109.6 L 86.9 -109.6 L 86.9 -109.6 Q 85.4 -109.6 84.4 -109.1 L 84.4 -109.1 L 84.4 -109.1 Q 83.5 -108.6 82.8 -107.4 Z M 111 -106.3 L 111 -106.3 L 111 -106.3 Q 113.1 -109.4 116.4 -111.4 L 116.4 -111.4 L 116.4 -111.4 Q 119.7 -113.5 123.8 -113.5 L 123.8 -113.5 L 123.8 -113.5 Q 127.8 -113.5 129.7 -112.2 L 129.7 -112.2 L 142.3 -113.5 L 137.9 -88.9 L 137.9 -88.9 Q 135.7 -76.3 130.9 -71.4 L 130.9 -71.4 L 130.9 -71.4 Q 126.4 -66.7 117.6 -66.7 L 117.6 -66.7 L 117.6 -66.7 Q 110.8 -66.7 107 -68.9 L 107 -68.9 L 107 -68.9 Q 103.2 -71 103.2 -74.5 L 103.2 -74.5 L 103.2 -74.5 Q 103.2 -77.1 105.1 -78.6 L 105.1 -78.6 L 105.1 -78.6 Q 107.1 -80.1 110.2 -80.1 L 110.2 -80.1 L 110.2 -80.1 Q 112.9 -80.1 114.9 -78.9 L 114.9 -78.9 L 114.9 -78.9 Q 116.1 -78.3 116.7 -77.4 L 116.7 -77.4 L 116.7 -77.4 Q 115.2 -76.1 115.2 -74 L 115.2 -74 L 115.2 -74 Q 115.2 -71.2 117.8 -71.2 L 117.8 -71.2 L 117.8 -71.2 Q 122.1 -71.2 124.5 -81.3 L 124.5 -81.3 L 124.5 -81.3 Q 125.2 -84.1 125.8 -86.8 L 125.8 -86.8 L 125.8 -86.8 Q 122.9 -83.3 116.4 -83.3 L 116.4 -83.3 L 116.4 -83.3 Q 111.9 -83.3 109.2 -85.5 L 109.2 -85.5 L 109.2 -85.5 Q 106.6 -87.7 106.6 -92.8 L 106.6 -92.8 L 106.6 -92.8 Q 106.6 -96 107.7 -99.6 L 107.7 -99.6 L 107.7 -99.6 Q 108.8 -103.2 111 -106.3 Z M 119.3 -92.6 L 119.3 -92.6 L 119.3 -92.6 Q 119.3 -88.2 121.5 -88.2 L 121.5 -88.2 L 121.5 -88.2 Q 123.1 -88.2 124.5 -89.9 L 124.5 -89.9 L 124.5 -89.9 Q 125.7 -91.3 126.1 -93.2 L 126.1 -93.2 L 129.4 -109.7 L 129.4 -109.7 Q 129.1 -109.8 128.8 -109.9 L 128.8 -109.9 L 128.8 -109.9 Q 128.1 -110.1 127.3 -110.1 L 127.3 -110.1 L 127.3 -110.1 Q 123.4 -110.1 121.1 -103.7 L 121.1 -103.7 L 121.1 -103.7 Q 119.3 -98.7 119.3 -92.6 Z M 170.7 -90.4 L 170.7 -90.4 L 170.7 -90.4 Q 172.3 -89.3 172.3 -86.9 L 172.3 -86.9 L 172.3 -86.9 Q 172.3 -84.5 171.1 -82.9 L 171.1 -82.9 L 171.1 -82.9 Q 169.8 -81.4 167.9 -80.4 L 167.9 -80.4 L 167.9 -80.4 Q 163.8 -78.3 159.3 -78.3 L 159.3 -78.3 L 159.3 -78.3 Q 154.9 -78.3 152.3 -79.2 L 152.3 -79.2 L 152.3 -79.2 Q 149.7 -80.2 148 -82 L 148 -82 L 148 -82 Q 144.6 -85.4 144.6 -91.6 L 144.6 -91.6 L 144.6 -91.6 Q 144.6 -101.2 149.9 -107.1 L 149.9 -107.1 L 149.9 -107.1 Q 155.5 -113.5 165.3 -113.5 L 165.3 -113.5 L 165.3 -113.5 Q 171.4 -113.5 174.4 -110.9 L 174.4 -110.9 L 174.4 -110.9 Q 176.6 -109 176.6 -105.8 L 176.6 -105.8 L 176.6 -105.8 Q 176.6 -94.6 157.2 -94.6 L 157.2 -94.6 L 157.2 -94.6 Q 156.9 -92.9 156.9 -91.5 L 156.9 -91.5 L 156.9 -91.5 Q 156.9 -88.6 158.2 -87.4 L 158.2 -87.4 L 158.2 -87.4 Q 159.5 -86.3 162 -86.3 L 162 -86.3 L 162 -86.3 Q 164.4 -86.3 167 -87.4 L 167 -87.4 L 167 -87.4 Q 169.6 -88.6 170.7 -90.4 Z M 157.6 -97.3 L 157.6 -97.3 L 157.6 -97.3 Q 162.2 -97.3 164.8 -100.2 L 164.8 -100.2 L 164.8 -100.2 Q 167.4 -102.8 167.4 -107.1 L 167.4 -107.1 L 167.4 -107.1 Q 167.4 -108.6 166.9 -109.4 L 166.9 -109.4 L 166.9 -109.4 Q 166.3 -110.2 165.2 -110.2 L 165.2 -110.2 L 165.2 -110.2 Q 164.1 -110.2 163.2 -109.8 L 163.2 -109.8 L 163.2 -109.8 Q 162.3 -109.4 161.3 -108 L 161.3 -108 L 161.3 -108 Q 159 -104.8 157.6 -97.3 Z M 197.9 -102 L 197.9 -102 L 197.9 -102 Q 198.8 -104.4 198.8 -106.4 L 198.8 -106.4 L 198.8 -106.4 Q 198.8 -110.2 195.8 -110.2 L 195.8 -110.2 L 195.8 -110.2 Q 194.2 -110.2 192.8 -108.8 L 192.8 -108.8 L 192.8 -108.8 Q 191.5 -107.3 191.5 -105.5 L 191.5 -105.5 L 191.5 -105.5 Q 191.5 -104.2 192.6 -103.2 L 192.6 -103.2 L 192.6 -103.2 Q 194 -101.8 197.8 -99.5 L 197.8 -99.5 L 197.8 -99.5 Q 201.6 -97.2 203 -95.3 L 203 -95.3 L 203 -95.3 Q 204.5 -93.4 204.5 -90.8 L 204.5 -90.8 L 204.5 -90.8 Q 204.5 -88.2 203.2 -85.9 L 203.2 -85.9 L 203.2 -85.9 Q 202 -83.5 199.7 -81.8 L 199.7 -81.8 L 199.7 -81.8 Q 194.9 -78.3 187.2 -78.3 L 187.2 -78.3 L 187.2 -78.3 Q 183.1 -78.3 179.9 -80.4 L 179.9 -80.4 L 179.9 -80.4 Q 176.7 -82.6 176.7 -85 L 176.7 -85 L 176.7 -85 Q 176.7 -87.5 178.5 -89 L 178.5 -89 L 178.5 -89 Q 180.3 -90.5 183 -90.5 L 183 -90.5 L 183 -90.5 Q 185.7 -90.5 187.4 -89.5 L 187.4 -89.5 L 187.4 -89.5 Q 186.5 -87.4 186.5 -85.9 L 186.5 -85.9 L 186.5 -85.9 Q 186.5 -81.7 190.1 -81.7 L 190.1 -81.7 L 190.1 -81.7 Q 191.7 -81.7 192.7 -82.7 L 192.7 -82.7 L 192.7 -82.7 Q 193.7 -83.6 193.7 -85.3 L 193.7 -85.3 L 193.7 -85.3 Q 193.7 -88.6 188.2 -92 L 188.2 -92 L 188.2 -92 Q 183.7 -95 182.7 -96.1 L 182.7 -96.1 L 182.7 -96.1 Q 181 -98.2 181 -100.7 L 181 -100.7 L 181 -100.7 Q 181 -103.3 182.2 -105.7 L 182.2 -105.7 L 182.2 -105.7 Q 183.4 -108.2 185.6 -109.9 L 185.6 -109.9 L 185.6 -109.9 Q 190.3 -113.5 198.4 -113.5 L 198.4 -113.5 L 198.4 -113.5 Q 202.6 -113.5 205.1 -111.8 L 205.1 -111.8 L 205.1 -111.8 Q 207.5 -110.1 207.5 -107.3 L 207.5 -107.3 L 207.5 -107.3 Q 207.5 -104.5 205.8 -102.9 L 205.8 -102.9 L 205.8 -102.9 Q 204.1 -101.3 201.1 -101.3 L 201.1 -101.3 L 201.1 -101.3 Q 199 -101.3 197.9 -102 Z M 249 -100.2 L 261.9 -101.3 L 261.9 -101.3 Q 257.3 -91.2 257.3 -79.5 L 257.3 -79.5 L 257.3 -79.5 Q 255.6 -78.3 253.1 -78.3 L 253.1 -78.3 L 253.1 -78.3 Q 250.5 -78.3 248.9 -79.4 L 248.9 -79.4 L 248.9 -79.4 Q 247.3 -80.6 247 -81.8 L 247 -81.8 L 247 -81.8 Q 245.4 -80.2 242.8 -79.2 L 242.8 -79.2 L 242.8 -79.2 Q 240.2 -78.3 237.5 -78.3 L 237.5 -78.3 L 237.5 -78.3 Q 234.7 -78.3 232.3 -79.2 L 232.3 -79.2 L 232.3 -79.2 Q 229.9 -80.1 228.1 -82 L 228.1 -82 L 228.1 -82 Q 224 -86.4 224 -94.6 L 224 -94.6 L 224 -94.6 Q 224 -107.4 230.8 -115.1 L 230.8 -115.1 L 230.8 -115.1 Q 237.9 -123.1 250.4 -123.1 L 250.4 -123.1 L 250.4 -123.1 Q 259 -123.1 262.1 -118.6 L 262.1 -118.6 L 262.1 -118.6 Q 263 -117.2 263 -115.5 L 263 -115.5 L 263 -115.5 Q 263 -113.8 262.3 -112.3 L 262.3 -112.3 L 262.3 -112.3 Q 261.6 -110.9 260.4 -109.8 L 260.4 -109.8 L 260.4 -109.8 Q 257.6 -107.2 254.3 -107.2 L 254.3 -107.2 L 254.3 -107.2 Q 252.9 -107.2 251.6 -107.6 L 251.6 -107.6 L 251.6 -107.6 Q 251.9 -109.6 251.9 -111.8 L 251.9 -111.8 L 251.9 -111.8 Q 251.9 -114 251.7 -115.1 L 251.7 -115.1 L 251.7 -115.1 Q 251.6 -116.1 251.2 -116.9 L 251.2 -116.9 L 251.2 -116.9 Q 250.4 -118.6 248.5 -118.6 L 248.5 -118.6 L 248.5 -118.6 Q 246.7 -118.6 244.7 -116.7 L 244.7 -116.7 L 244.7 -116.7 Q 242.7 -114.7 241.1 -111.5 L 241.1 -111.5 L 241.1 -111.5 Q 237.6 -104.4 237.6 -95.7 L 237.6 -95.7 L 237.6 -95.7 Q 237.6 -91.8 239.1 -89 L 239.1 -89 L 239.1 -89 Q 240.8 -85.9 243.7 -85.9 L 243.7 -85.9 L 243.7 -85.9 Q 244.7 -85.9 245.6 -86.4 L 245.6 -86.4 L 245.6 -86.4 Q 246.6 -86.9 247 -87.3 L 247 -87.3 L 249 -100.2 Z M 267.9 -81.5 L 267.9 -81.5 L 267.9 -81.5 Q 266.4 -83.1 265.7 -85.8 L 265.7 -85.8 L 265.7 -85.8 Q 265 -88.4 265 -92.7 L 265 -92.7 L 265 -92.7 Q 265 -97 266.5 -100.9 L 266.5 -100.9 L 266.5 -100.9 Q 268 -104.8 270.6 -107.6 L 270.6 -107.6 L 270.6 -107.6 Q 276.1 -113.5 285.2 -113.5 L 285.2 -113.5 L 285.2 -113.5 Q 288.5 -113.5 290.9 -112.4 L 290.9 -112.4 L 301.8 -113.5 L 297.1 -88.5 L 297.1 -88.5 Q 296.9 -87.7 296.9 -86.3 L 296.9 -86.3 L 296.9 -86.3 Q 296.9 -84.9 297.7 -84 L 297.7 -84 L 297.7 -84 Q 298.6 -83.1 299.9 -83 L 299.9 -83 L 299.9 -83 Q 299.2 -80.8 296.9 -79.5 L 296.9 -79.5 L 296.9 -79.5 Q 294.6 -78.3 292 -78.3 L 292 -78.3 L 292 -78.3 Q 289.3 -78.3 287.6 -79.3 L 287.6 -79.3 L 287.6 -79.3 Q 285.8 -80.2 285.3 -81.9 L 285.3 -81.9 L 285.3 -81.9 Q 284.3 -80.3 282.1 -79.3 L 282.1 -79.3 L 282.1 -79.3 Q 279.9 -78.3 277 -78.3 L 277 -78.3 L 277 -78.3 Q 274.1 -78.3 271.7 -79 L 271.7 -79 L 271.7 -79 Q 269.4 -79.8 267.9 -81.5 Z M 281.4 -107.4 L 281.4 -107.4 L 281.4 -107.4 Q 280.6 -106.3 280 -104.3 L 280 -104.3 L 280 -104.3 Q 279.3 -102.4 278.3 -97.2 L 278.3 -97.2 L 278.3 -97.2 Q 277.2 -92 277.2 -88.2 L 277.2 -88.2 L 277.2 -88.2 Q 277.2 -84.5 277.8 -83.4 L 277.8 -83.4 L 277.8 -83.4 Q 278.4 -82.4 279.4 -82.4 L 279.4 -82.4 L 279.4 -82.4 Q 281.5 -82.4 283 -84.3 L 283 -84.3 L 283 -84.3 Q 284.5 -86.3 285 -89.7 L 285 -89.7 L 288.4 -108.5 L 288.4 -108.5 Q 287.1 -109.6 285.5 -109.6 L 285.5 -109.6 L 285.5 -109.6 Q 284 -109.6 283 -109.1 L 283 -109.1 L 283 -109.1 Q 282.1 -108.6 281.4 -107.4 Z M 320.6 -83.1 L 320.6 -83.1 L 320.6 -83.1 Q 318.6 -78.3 312.2 -78.3 L 312.2 -78.3 L 312.2 -78.3 Q 309 -78.3 307 -80.5 L 307 -80.5 L 307 -80.5 Q 305.3 -82.4 305.3 -84.5 L 305.3 -84.5 L 305.3 -84.5 Q 305.3 -89.3 307.6 -99.8 L 307.6 -99.8 L 312.2 -124.3 L 325.2 -125.6 L 319 -93.2 L 319 -93.2 Q 317.9 -88.5 317.9 -86.8 L 317.9 -86.8 L 317.9 -86.8 Q 317.9 -83.2 320.6 -83.1 Z M 341.3 -83.1 L 341.3 -83.1 L 341.3 -83.1 Q 339.3 -78.3 333 -78.3 L 333 -78.3 L 333 -78.3 Q 329.8 -78.3 327.7 -80.5 L 327.7 -80.5 L 327.7 -80.5 Q 326.1 -82.4 326.1 -84.5 L 326.1 -84.5 L 326.1 -84.5 Q 326.1 -89.3 328.3 -99.8 L 328.3 -99.8 L 333 -124.3 L 346 -125.6 L 339.8 -93.2 L 339.8 -93.2 Q 338.7 -88.5 338.7 -86.8 L 338.7 -86.8 L 338.7 -86.8 Q 338.7 -83.2 341.3 -83.1 Z M 372.7 -90.4 L 372.7 -90.4 L 372.7 -90.4 Q 374.3 -89.3 374.3 -86.9 L 374.3 -86.9 L 374.3 -86.9 Q 374.3 -84.5 373 -82.9 L 373 -82.9 L 373 -82.9 Q 371.8 -81.4 369.8 -80.4 L 369.8 -80.4 L 369.8 -80.4 Q 365.7 -78.3 361.3 -78.3 L 361.3 -78.3 L 361.3 -78.3 Q 356.9 -78.3 354.3 -79.2 L 354.3 -79.2 L 354.3 -79.2 Q 351.7 -80.2 350 -82 L 350 -82 L 350 -82 Q 346.6 -85.4 346.6 -91.6 L 346.6 -91.6 L 346.6 -91.6 Q 346.6 -101.2 351.9 -107.1 L 351.9 -107.1 L 351.9 -107.1 Q 357.5 -113.5 367.3 -113.5 L 367.3 -113.5 L 367.3 -113.5 Q 373.4 -113.5 376.4 -110.9 L 376.4 -110.9 L 376.4 -110.9 Q 378.6 -109 378.6 -105.8 L 378.6 -105.8 L 378.6 -105.8 Q 378.6 -94.6 359.2 -94.6 L 359.2 -94.6 L 359.2 -94.6 Q 358.9 -92.9 358.9 -91.5 L 358.9 -91.5 L 358.9 -91.5 Q 358.9 -88.6 360.2 -87.4 L 360.2 -87.4 L 360.2 -87.4 Q 361.5 -86.3 364 -86.3 L 364 -86.3 L 364 -86.3 Q 366.4 -86.3 369 -87.4 L 369 -87.4 L 369 -87.4 Q 371.6 -88.6 372.7 -90.4 Z M 359.6 -97.3 L 359.6 -97.3 L 359.6 -97.3 Q 364.1 -97.3 366.8 -100.2 L 366.8 -100.2 L 366.8 -100.2 Q 369.4 -102.8 369.4 -107.1 L 369.4 -107.1 L 369.4 -107.1 Q 369.4 -108.6 368.8 -109.4 L 368.8 -109.4 L 368.8 -109.4 Q 368.3 -110.2 367.2 -110.2 L 367.2 -110.2 L 367.2 -110.2 Q 366.1 -110.2 365.2 -109.8 L 365.2 -109.8 L 365.2 -109.8 Q 364.3 -109.4 363.3 -108 L 363.3 -108 L 363.3 -108 Q 360.9 -104.8 359.6 -97.3 Z M 400.8 -97.5 L 400.8 -97.5 L 400.8 -97.5 Q 403.1 -101.6 403.1 -105.8 L 403.1 -105.8 L 403.1 -105.8 Q 403.1 -108.5 401.1 -108.5 L 401.1 -108.5 L 401.1 -108.5 Q 399.6 -108.5 398 -105.9 L 398 -105.9 L 398 -105.9 Q 396.3 -103.3 395.8 -99.9 L 395.8 -99.9 L 392.5 -79.5 L 379.2 -78.3 L 385.8 -112.2 L 396.3 -113.5 L 395.2 -107 L 395.2 -107 Q 398.3 -113.5 405.4 -113.5 L 405.4 -113.5 L 405.4 -113.5 Q 409.1 -113.5 411.1 -111.5 L 411.1 -111.5 L 411.1 -111.5 Q 413.1 -109.6 413.1 -105.7 L 413.1 -105.7 L 413.1 -105.7 Q 413.1 -101.8 410.5 -99.3 L 410.5 -99.3 L 410.5 -99.3 Q 407.9 -96.8 403.5 -96.8 L 403.5 -96.8 L 403.5 -96.8 Q 401.6 -96.8 400.8 -97.5 Z M 434.5 -86.8 L 434.5 -86.8 L 434.5 -86.8 Q 431.2 -83.3 425.1 -83.3 L 425.1 -83.3 L 425.1 -83.3 Q 417.5 -83.3 415.9 -88.9 L 415.9 -88.9 L 415.9 -88.9 Q 415.3 -90.6 415.3 -92.4 L 415.3 -92.4 L 415.3 -92.4 Q 415.3 -94.3 415.7 -96.2 L 415.7 -96.2 L 418.7 -112.2 L 431.7 -113.5 L 428.2 -94.8 L 428.2 -94.8 Q 428.1 -94 427.9 -93.1 L 427.9 -93.1 L 427.9 -93.1 Q 427.7 -92.2 427.7 -91.3 L 427.7 -91.3 L 427.7 -91.3 Q 427.7 -90.4 428 -89.8 L 428 -89.8 L 428 -89.8 Q 428.3 -89.1 428.8 -88.8 L 428.8 -88.8 L 428.8 -88.8 Q 429.6 -88.2 430.9 -88.2 L 430.9 -88.2 L 430.9 -88.2 Q 432.3 -88.2 433.5 -89.9 L 433.5 -89.9 L 433.5 -89.9 Q 434.7 -91.6 435.2 -94.5 L 435.2 -94.5 L 438.8 -112.2 L 451.4 -113.5 L 446.6 -88.3 L 446.6 -88.3 Q 444.2 -76 439.3 -71.2 L 439.3 -71.2 L 439.3 -71.2 Q 436.8 -68.7 433.6 -67.7 L 433.6 -67.7 L 433.6 -67.7 Q 430.4 -66.7 426.2 -66.7 L 426.2 -66.7 L 426.2 -66.7 Q 419.5 -66.7 415.7 -68.8 L 415.7 -68.8 L 415.7 -68.8 Q 411.8 -70.9 411.8 -74.4 L 411.8 -74.4 L 411.8 -74.4 Q 411.8 -77 413.8 -78.6 L 413.8 -78.6 L 413.8 -78.6 Q 415.8 -80.1 418.9 -80.1 L 418.9 -80.1 L 418.9 -80.1 Q 421.6 -80.1 423.6 -78.9 L 423.6 -78.9 L 423.6 -78.9 Q 424.8 -78.2 425.4 -77.3 L 425.4 -77.3 L 425.4 -77.3 Q 423.9 -76 423.9 -73.9 L 423.9 -73.9 L 423.9 -73.9 Q 423.9 -71.1 426.5 -71.1 L 426.5 -71.1 L 426.5 -71.1 Q 430.7 -71.1 433.1 -80.8 L 433.1 -80.8 L 433.1 -80.8 Q 433.8 -83.7 434.5 -86.8 Z" fill="url(#editing-gradient-gradient)"></path></g></g><style>text {
  font-size: 64px;
  font-family: Arial Black;
  dominant-baseline: central;
  text-anchor: middle;
}</style></svg>